<svg xmlns="http://www.w3.org/2000/svg" viewBox="0 0 24 24"><path fill="none" d="M0 0h24v24H0z"/><path d="M7.372 22.81a5.931 5.931 0 0 1-5.878-5.971V7.146a5.932 5.932 0 0 1 5.878-5.972h9.544a5.933 5.933 0 0 1 5.878 5.972v9.694a5.932 5.932 0 0 1-5.878 5.971zM3.384 7.146v9.694a4.024 4.024 0 0 0 3.989 4.052h9.544a4.024 4.024 0 0 0 3.988-4.052V7.146a4.024 4.024 0 0 0-3.988-4.052H7.372a4.024 4.024 0 0 0-3.988 4.052zm3.272 4.847a5.49 5.49 0 1 1 5.489 5.575 5.538 5.538 0 0 1-5.49-5.575zm1.89 0a3.6 3.6 0 1 0 3.6-3.656 3.632 3.632 0 0 0-3.601 3.656zm8.34-4.8a1.422 1.422 0 0 1 0-1.991 1.371 1.371 0 0 1 1.959 0 1.423 1.423 0 0 1 0 1.991 1.369 1.369 0 0 1-1.959 0z" fill="#fff"/></svg>