<svg xmlns="http://www.w3.org/2000/svg" width="562.756" height="140.125"><path d="M447.277 86.944c-.98 1.032-2.363 2.165-2.66 3.268-2.258 8.439-4.294 16.883-6.48 25.653h61.882l-6.048 24.259h34.277l6.093-24.438h15.15l6.975-27.973h-15.464L562.757.456c-10.133 0-23.9.123-33.49-.073zm61.454.611h-27.4l38.248-43.522z" fill="#00a3d9"/><path d="M374.652 84.688h44.868l7.837-31.432h-44.905l5.394-21.629h46.479L442.046.661h-80.674l-34.771 139.466h80.7l7.792-31.258h-46.466zm-58.547-73.482C307.438 3.932 296.251.906 283.89.522c-18.142-.559-36.5-.35-54.771-.447a26.69 26.69 0 0 0-3.025.34l-34.817 139.637c14.848 0 29.263.206 43.787-.077 8.516-.166 17.16-.329 25.838-1.851 23.909-4.2 43.507-16.584 56.932-39.17a102.06 102.06 0 0 0 14.023-42.81c1.825-18.623-2.738-34.015-15.752-44.938zm-29.153 76.207c-7.338 12.834-18.3 19.755-31.815 21.006-6.743.624-13.309.11-20.422.11l19.209-77.044c10.778.234 22.2-1.75 31.185 3.417 7.908 4.547 10.763 12.348 10.488 21.873a64.622 64.622 0 0 1-8.645 30.638zm-153.266 52.712h35.163L203.613.69h-35.162zm-16.278-.026c-6.285-16.547-12.46-33.109-18.658-49.433a5.457 5.457 0 0 1 .894-.613c24.352-7.411 39.609-34.81 38-57.655-.662-9.428-3.745-17.829-11.35-23.98-6.854-5.545-15.119-7.269-23.554-7.665C90.575.181 78.382.166 66.199.053 55.044-.052 43.89.031 32.526.031l-7.071 30.117h3.8c18.334-.009 36.665-.056 55 0a82.468 82.468 0 0 1 10.4.716c5.453.712 8.891 3.9 10.179 9.26 2.668 11.1-5.638 27.2-17.141 28.792-6.756.937-13.64.974-20.473 1.305-3.1.148-6.205.026-9.576.026.3.978.432 1.458.6 1.926 7.811 21.978 16.139 45.919 23.885 67.921z" fill="#fff"/><path d="M39.783 140.098L16.097 70.677l-16.1 69.424z" fill="#00a3d9"/></svg>