<svg xmlns="http://www.w3.org/2000/svg" width="25.164" height="30.485"><path d="M5.352 4.072h.931v5.934h-.931zM0 0v21.176h5.236v-7.213h2.909l3.374-2.909V2.909L8.145 0zm25.165 8.261h-5.236V4.072h-1.047V17.22h1.047v-5h5.236v6.05l-3.258 3.025H17.02l-3.607-3.027V3.025L16.438 0h5.7l3.025 3.025zM10.821 29.438l-.814 1.047H7.679v-7.447h2.327l.931 1.047v5.353zm-1.513-5h-.229v4.65h.349v-4.65zm-5.971 5l-.814 1.047H.195v-7.447h2.327l.931 1.047v5.353zm-1.513-5h-.229v4.65h.349v-4.65zm9.462 1.858h1.396v1.047h-1.396zm4.733-.233l-.582.7.582.7v3.025h-1.4v-3.029h-.225v3.025h-1.4v-7.446h2.211l.814 1.047zm-1.4-1.629h-.225v1.629h.233zm5.278 5.004l-.814 1.047h-1.514l-.814-1.047v-5.353l.814-1.047h1.513l.931 1.047v5.353zm-1.4-5h-.233v4.65h.233zm4.424-1.4l-.349 3.723h-.116l-.465-3.723h-1.513v7.447h1.28v-3.84l.465 3.84h.465l.465-3.84h.116l-.116 3.84h1.4v-7.447zM5.702 29.205l.349-6.283h1.28l-.7 7.563H4.54l-.7-7.563h1.28l.349 6.283z" fill="#fff"/></svg>