<svg xmlns="http://www.w3.org/2000/svg" width="87.101" height="18.154"><path d="M8.769 0a1.016 1.016 0 0 1 .327.067c.079.006.158.018.236.024.182.067.37.091.551.151.079.012.164.018.242.03.079.03.158.061.236.085a3.881 3.881 0 0 0 .46.1l-.006.024a5.343 5.343 0 0 1 .679.182 4.364 4.364 0 0 1 .624.188c.073.006.139.012.212.024l-.006.048c.042.006.133.012.176.018.073.03.151.055.23.085.145.036.285.079.424.127.164.055.321.109.491.151.115.042.23.079.351.115l.254.091c.061.018.115.042.176.061l.248.091c.079.03.151.067.23.1l.194.073c.1.048.2.091.3.133s.206.109.309.17a.168.168 0 0 0 .055-.006 3.744 3.744 0 0 0 .424.254l.218.145a5.692 5.692 0 0 1 .782.648c0 .012-.006.042-.006.055l.042-.024a7.064 7.064 0 0 1 .479.642c.036.073.079.145.115.218l.024-.006c.024.067.048.139.073.206l.109.236a5.638 5.638 0 0 1 .212.776.1.1 0 0 1 .042.006l.018.424.042-.006a10.188 10.188 0 0 1 .033 1.965c-.012.133-.018.273-.024.406l-.042-.012c-.006.115-.018.224-.03.339a3.542 3.542 0 0 0-.121.358c-.03.085-.061.17-.091.248s-.085.164-.133.242l-.006.048c-.024.036-.067.109-.091.145l-.012.012c-.048.073-.1.145-.152.224a1.058 1.058 0 0 0-.073.085h-.025c-.012.024-.048.067-.061.091-.073.067-.145.139-.218.206s-.17.115-.254.17c-.03.018-.091.061-.121.079a.206.206 0 0 0-.061.006 3.1 3.1 0 0 1-1.7.164c-.218-.073-.442-.127-.66-.218-.073-.03-.151-.055-.224-.085v-.061c-.03.006-.085.024-.109.03l.006-.079-.055.006c.012-1.5 0-3.011.006-4.514-.006-.594.012-1.194-.018-1.788h-.031a.879.879 0 0 0-1.018-.788c-.03.018-.091.061-.127.085a1 1 0 0 0-.273.8q-.009 6.571 0 13.143c.006.376-.012.751.018 1.127-.036.006-.121.006-.158.012a.7.7 0 0 0 .1-.085.939.939 0 0 1-.527-.1c-.164-.055-.321-.109-.491-.151l-.236-.091a1.378 1.378 0 0 0-.158-.012l.006-.036a3.392 3.392 0 0 1-.424-.121 2.55 2.55 0 0 0-.37-.1l.006-.036c-.036-.006-.121-.012-.158-.018l-.23-.091c-.061-.018-.121-.03-.188-.048s-.158-.048-.242-.079c-.182-.061-.364-.115-.545-.176-.091-.024-.176-.055-.267-.079Q8.769 8.45 8.769 0zm35.356 4.296a4.17 4.17 0 0 1 2.175.376h.091l-.006.042a2.86 2.86 0 0 1 .539.394.644.644 0 0 1 .061.073c.085.1.164.194.248.291.024.048.055.1.085.151s.073.109.115.17v.061c.061.115.115.236.17.351 0 .042.006.127.006.17l.055-.006c.006.109.018.224.024.333a4.073 4.073 0 0 1 .036 1.121h-.042l-.018.333c-.055.145-.1.291-.164.43a.3.3 0 0 0-.012.073c-.073.133-.145.273-.218.406a2.736 2.736 0 0 1-.521.57c-.085.061-.17.121-.248.188h-.018a2.665 2.665 0 0 1-.563.267v.024a1.886 1.886 0 0 0-.448.121 2.686 2.686 0 0 0-.539.073c-3.363.024-6.726-.012-10.095.018v.042a.638.638 0 0 0-.339.133.356.356 0 0 1-.079-.012v.073l-.048-.006a2.158 2.158 0 0 0-.491.63 3.034 3.034 0 0 0-.1.309 5.594 5.594 0 0 0-.073 1.272c-.006.9.006 1.8-.006 2.7-.794.012-1.582 0-2.375.006-.012-1.06 0-2.121-.006-3.181a4.344 4.344 0 0 1 .042-.794c.012-.079.03-.164.042-.242s.048-.164.079-.242a2.751 2.751 0 0 1 .194-.461 3.724 3.724 0 0 1 .339-.527h.049l-.012-.055c.036-.024.1-.073.133-.1l-.006-.055.048.018a.689.689 0 0 1 .061-.079c.115-.1.236-.194.357-.291.018 0 .061.006.079.006l.012-.055.206-.091c.079-.036.157-.067.236-.1a2.719 2.719 0 0 1 .794-.127c3.193-.006 6.386 0 9.574 0a2.282 2.282 0 0 0 .612-.036c.1-.024.194-.042.291-.067a1.4 1.4 0 0 0 .727-.715 9.46 9.46 0 0 1 .133-.364c.006-.115.018-.23.018-.345a.143.143 0 0 1 .048.012c0-.2 0-.4-.006-.594h-.042l-.018-.3c-.024-.073-.055-.151-.079-.224s-.055-.127-.079-.188c-.006-.03-.024-.085-.03-.115a6.72 6.72 0 0 1-.127-.151l-.012-.006a6.584 6.584 0 0 1-.109-.151l-.079-.048a.671.671 0 0 0-.382-.2.249.249 0 0 0-.006-.067 4.4 4.4 0 0 1-.279-.03.744.744 0 0 0-.23-.048H31.322c0-.388-.006-.782.006-1.169zm14.689.006v-.036c2.418.012 4.829 0 7.247.006.049.012.146.042.194.055-.006.382 0 .763-.006 1.145-1.981.012-3.963 0-5.944.006a4.707 4.707 0 0 0-.969.042 1.8 1.8 0 0 0-.557.2 1.543 1.543 0 0 0-.5.618 6.862 6.862 0 0 1-.115.321c-.012.079-.018.164-.024.242a2 2 0 0 0-.048.6v4.9a3.867 3.867 0 0 1-.067.836l-.036-.012c-.006.091-.018.176-.024.267a2.722 2.722 0 0 1-.97 1.388l-.006.042c-.024 0-.073-.006-.1-.006l-.006.055c-.1.048-.194.1-.285.158l-.17.073a2.245 2.245 0 0 1-.285.1l.006.03a11.539 11.539 0 0 1-2.587.145c-2.127-.006-4.248.012-6.374-.012-.006-.382 0-.763-.006-1.145l.061.012-.012-.067c2.333-.006 4.666 0 7 0a1.651 1.651 0 0 0 .612-.127 3 3 0 0 0 .364-.254 1.8 1.8 0 0 0 .345-.551 3.186 3.186 0 0 0 .127-1.1 3.31 3.31 0 0 0 .018-.424 7.3 7.3 0 0 1 0-1.151 2.889 2.889 0 0 1 0-.606 3.376 3.376 0 0 1-.018-.606 3.31 3.31 0 0 0 .018-.424c-.061-.485.018-.969-.006-1.454a1.108 1.108 0 0 1 .006-.424 2.707 2.707 0 0 1 .055-.491c.012-.091.024-.182.03-.267h.036c.018-.091.036-.182.061-.273a5.236 5.236 0 0 1 .23-.5 2.919 2.919 0 0 1 .254-.339c.018-.018.055-.048.073-.067l-.012-.024.17-.151a2.31 2.31 0 0 1 .557-.376l.012-.024c.139-.055.279-.109.424-.151v-.036c.061 0 .182-.006.242-.012l-.012-.042.285-.036a3.27 3.27 0 0 1 .712-.053zm21.062.037c.139-.024.279-.042.418-.073a1.3 1.3 0 0 0 .254.061 1.78 1.78 0 0 1 .279.151.569.569 0 0 0 .061.061c.054.067.109.139.158.206.024.1.054.194.085.291h.036c.03 2.666 0 5.338.012 8 .788.012 1.575.006 2.363.006a.53.53 0 0 0-.012.1h.061c-.006.364 0 .733-.006 1.1-.8.024-1.606-.006-2.406.012-.012.4 0 .8-.012 1.194-.788.012-1.569 0-2.351.006a.424.424 0 0 0-.061-.085c.006-.37.012-.745-.006-1.115-4.211-.012-8.422 0-12.634-.006a1.2 1.2 0 0 1-.618-.115h-.054a1.117 1.117 0 0 1-.273-.333c.006-.109.012-.212.024-.321.061-.085.121-.17.182-.248.1-.1.212-.188.321-.279.2-.115.4-.242.606-.364l.236-.164c.018 0 .061.006.079.006l.006-.048c.157-.091.315-.194.479-.285l.006-.042.073.012.006-.073c.024 0 .067.006.085.006.03-.024.085-.073.109-.1.067-.036.139-.073.212-.109l.006-.055a.6.6 0 0 0 .1.012l.006-.048c.121-.067.236-.139.352-.212.067-.042.139-.085.212-.127l.006-.018.321-.182c.024-.018.079-.055.109-.073.085-.048.17-.1.255-.151.145-.085.285-.176.43-.261a3.281 3.281 0 0 0 .3-.2.167.167 0 0 0 .054-.006 1.3 1.3 0 0 1 .327-.206l.006-.018c.182-.1.358-.212.533-.327.121-.073.242-.145.358-.23h.055c.03-.024.085-.079.115-.1.079-.048.158-.091.236-.139.145-.091.285-.182.436-.267.073-.042.139-.085.212-.127v-.048c.03.006.085.012.115.018l-.006-.055c.1-.055.194-.109.3-.158v-.024c.14-.079.279-.164.412-.255h.079v-.042c.073-.048.151-.091.224-.139h.048l.1-.079.006-.042c.018 0 .055.006.079.006.061-.048.127-.1.194-.145a2.181 2.181 0 0 0 .352-.23c.018 0 .055.006.073.006l.006-.042c.261-.145.5-.315.763-.467.139-.085.279-.176.418-.267a5.217 5.217 0 0 0 .612-.382h.054a3.278 3.278 0 0 1 .3-.2c.145-.091.3-.182.436-.279l.073.006a.144.144 0 0 1 .012-.048c.024-.018.073-.061.1-.079l.048.006a2.784 2.784 0 0 1 .315-.2c.061-.042.127-.079.194-.121l.145-.091a3.352 3.352 0 0 0 .394-.254c.012 0 .042.006.055.006a1.4 1.4 0 0 1 .321-.212l.006-.018c.054-.03.109-.061.17-.091a6.73 6.73 0 0 1 .376-.23c.054-.042.1-.085.157-.121.018 0 .061.006.079.006l.006-.061.067.006.006-.067a.6.6 0 0 1 .1.012l.006-.055c.151-.073.3-.151.454-.218.083-.021.144-.042.204-.069zm-1.842 2.472c-.273.17-.551.327-.818.515-.061.03-.127.067-.182.1-.079.048-.158.1-.237.151s-.182.109-.272.158l-.012.042-.048-.006a1.91 1.91 0 0 0-.115.079c-.079.055-.158.109-.236.17-.018 0-.061-.012-.079-.012l-.006.048c-.073.042-.139.085-.212.127-.091.055-.182.109-.267.158l-.006.018c-.109.061-.212.121-.315.182-.067.048-.133.091-.2.139a.473.473 0 0 1-.085-.012v.073l-.073-.012v.073c-.03-.006-.079-.006-.109-.012l-.012.073h-.079a5.934 5.934 0 0 1-.588.37l-.006.018a5.454 5.454 0 0 0-.315.188c-.382.236-.763.473-1.151.709a3.678 3.678 0 0 1-.206.121l-.006.018-.473.273c-.079.055-.158.109-.23.164-.012 0-.042.006-.054.006a1.673 1.673 0 0 1-.146.085v.024a2.258 2.258 0 0 0-.206.115c-.17.115-.352.218-.527.327a4.855 4.855 0 0 1-.539.321v.024c-.067.03-.127.055-.188.085l-.006.024c-.127.073-.248.145-.376.218l-.006.048h-.079a6.291 6.291 0 0 1-.539.351l-.115.073-.048-.012v.073c-.024 0-.079-.006-.1-.006l-.006.048c-.067.03-.127.061-.188.091l-.006.055a.6.6 0 0 0-.1-.012v.055c-.067.03-.127.055-.188.085v.036l-.182.091c0 .03-.006.085-.006.109.152.006.3.012.461.012 3.411-.006 6.817.006 10.228-.006.012-1.588 0-3.181.006-4.769-.012-.618.03-1.236-.024-1.854a3.59 3.59 0 0 0-.728.39zM7.855 10.246h.188c-.006.739.006 1.479-.006 2.218a2.32 2.32 0 0 0-.394.133l-.133.024c-.067.03-.133.067-.2.1-.024.006-.073.012-.1.018-.254.1-.521.176-.776.291-.042.006-.121.012-.158.018v.036l-.273.091c-.073.024-.145.042-.218.061l.012.03-.212.055c-.1.03-.188.067-.285.091l.006.036c-.036.006-.115.012-.158.018a1.913 1.913 0 0 1-.327.121l-.006.03a7.026 7.026 0 0 0-.83.279c-.079.042-.158.079-.236.121s-.127.091-.194.133a2.1 2.1 0 0 0-.079.279l.055-.006a1.089 1.089 0 0 0 .079.085l-.006.03.218.091c.091.024.182.042.279.061l-.018.036a11.17 11.17 0 0 0 1.351 0l-.018-.042a1.925 1.925 0 0 0 .757-.176.862.862 0 0 0 .133-.03c.073-.03.145-.067.218-.1.091-.03.182-.061.273-.085l.23-.091c.085-.03.164-.055.248-.085.133-.048.267-.1.394-.158h.115v-.061c.085-.006.17-.012.248-.024 0 .654-.006 1.3.006 1.957a3.426 3.426 0 0 1-.491.073v.036c-.206 0-.406.018-.612.024l.018.042a5.692 5.692 0 0 0-.721.036 7.352 7.352 0 0 1-1.212-.018c-.236-.012-.473-.018-.7-.024l.012-.042c-.176-.012-.358-.018-.533-.024-.018-.073-.067-.164-.109-.055-.048 0-.145 0-.194-.006l-.03-.024a1.382 1.382 0 0 1-.315-.061 1.753 1.753 0 0 1-.309-.067c-.079-.018-.151-.03-.23-.042s-.164-.055-.242-.085c-.073-.006-.145-.018-.218-.024l.006-.036a4.84 4.84 0 0 1-.576-.176c-.1-.03-.206-.067-.309-.1-.061-.03-.121-.067-.182-.1h-.065a3.866 3.866 0 0 1-.127-.079c-.1-.055-.206-.115-.309-.176-.1-.085-.2-.176-.3-.261-.067-.079-.127-.164-.194-.242a1.13 1.13 0 0 1-.012-.866 2.011 2.011 0 0 1 .479-.454 3.355 3.355 0 0 1 .321-.182v-.048a.668.668 0 0 0 .109.012l.012-.048c.127-.055.254-.121.382-.182.1-.042.2-.091.3-.133.067-.024.133-.055.2-.079a4.619 4.619 0 0 1 .509-.188l-.006-.042a1.6 1.6 0 0 0 .17-.012c.067-.036.127-.067.194-.1l.109-.024c.061-.024.121-.042.188-.067.194-.073.388-.139.582-.212.067-.024.127-.042.194-.067a3.054 3.054 0 0 0 .3-.121c.036-.006.1-.024.139-.03.194-.085.388-.145.588-.218a4.667 4.667 0 0 0 .472-.172l.135-.021c.1-.048.2-.085.3-.127l.218-.055-.006-.03a4.191 4.191 0 0 0 .467-.151c.1-.036.194-.067.291-.109.145-.048.291-.1.436-.145.073-.03.151-.061.224-.085s.164-.055.242-.085.151-.048.224-.067z" fill="#fff"/><path d="M17.131 11.209l-.012-.042c.315.012.636-.006.951.006.279.048.564.042.842.067a2.306 2.306 0 0 0 .351.036l-.018.042c.17.006.339.012.509.03.218.073.454.073.667.151l.267.036-.006.036a4.3 4.3 0 0 1 .612.152v.024a6.779 6.779 0 0 1 .751.242c.067.03.133.061.206.091s.158.067.236.109a.355.355 0 0 0 .079-.012l.006.079c.024 0 .067-.006.091-.006.121.091.254.182.37.285.018 0 .055.006.073.006v.073h.048l.109.145c.024.03.073.085.1.115v.061l.109.164a1.108 1.108 0 0 1-.1.624l-.091.145c-.018.018-.048.061-.067.079h-.012a1.045 1.045 0 0 0-.067.085 4.565 4.565 0 0 1-.957.624 3.948 3.948 0 0 1-.5.212c-.061.024-.121.042-.182.061-.418.164-.842.3-1.26.454-.1.036-.2.073-.3.1l-.182.073a1.176 1.176 0 0 0-.139.036 2.835 2.835 0 0 1-.291.109c-.067.024-.127.042-.194.067l-.588.218c-.085.024-.164.055-.248.085l-.236.091c-.061.018-.127.042-.188.061a2.534 2.534 0 0 0-.3.121l-.133.024c-.1.042-.194.085-.3.121-.073.024-.145.042-.218.067v.024c-.357.091-.7.242-1.042.358l-.194.073c-.145.048-.285.1-.43.151-.164.061-.327.121-.491.176-.061.024-.127.042-.188.067-.133.048-.273.1-.406.151a6.385 6.385 0 0 1-.873.285c.006-.715 0-1.43.006-2.145.055-.109.206-.109.309-.164.145-.042.285-.1.43-.152.127-.048.254-.091.382-.133a3.345 3.345 0 0 1 .321-.109l-.006-.042.242-.018v-.042c.151-.048.3-.1.454-.158l.3-.109c.061-.024.121-.048.182-.067l.188-.061c.1-.036.194-.079.3-.109.261-.085.515-.182.776-.279.067-.024.127-.048.194-.067.024-.006.067-.012.085-.018.067-.03.139-.067.206-.1l.133-.024c.285-.121.576-.212.866-.315.048-.012.139-.042.188-.055l-.006-.03.218-.055a4.124 4.124 0 0 1 .461-.158v-.024a.819.819 0 0 0 .285-.133l.055.006c.018-.024.048-.073.067-.1l.091-.048a.29.29 0 0 0-.145-.406 2.369 2.369 0 0 1-.2-.079 1.121 1.121 0 0 0-.4-.055l.012-.036a3.436 3.436 0 0 0-.933.036c-.121.006-.242.012-.364.024-.164.055-.327.085-.491.139s-.327.115-.491.17c-.079.03-.158.061-.236.1-.03.006-.091.012-.121.018a2.726 2.726 0 0 1-.309.121 2.393 2.393 0 0 1-.5.145.167.167 0 0 1-.006.055 3.876 3.876 0 0 0-.273.067c-.061.024-.115.042-.176.067l-.309.109c-.079.024-.158.055-.236.085-.164.055-.327.109-.491.176l-.121.024c-.1.042-.206.085-.309.121l-.182.055a1.771 1.771 0 0 1-.43.133c0-.685.006-1.375 0-2.06a.638.638 0 0 1 .042-.261 1.473 1.473 0 0 0 .394-.115c.042-.006.127-.024.17-.03a4.324 4.324 0 0 1 .679-.188 1.279 1.279 0 0 1 .3-.061c.1-.03.2-.055.3-.085.115-.012.23-.018.345-.024l-.006-.042c.182-.006.364-.018.545-.024l-.012-.042a10.494 10.494 0 0 1 1.063-.06zm69.707 2.994c.067-.006.14-.012.212-.012a7.262 7.262 0 0 1 .048 1.206h-.061l.024.085-.073-.042c-.006.03-.024.091-.03.121a3.639 3.639 0 0 1-.03-.891h-.1c-.048.17-.1.345-.158.509a1.91 1.91 0 0 0-.067.267l-.194.018c-.1-.315-.212-.63-.309-.945a7.944 7.944 0 0 0-.012.933 1.707 1.707 0 0 0-.176.012c-.006-.412 0-.818 0-1.23.079 0 .157 0 .242-.006.024.091.054.182.073.273l.03-.006c.049.194.109.382.176.57.018.067.036.133.061.2.101-.353.241-.704.344-1.062zm-2.079-.012c.321.006.648.006.969 0a1.552 1.552 0 0 0-.006.17c-.127 0-.255-.006-.382-.006 0 .339-.006.679 0 1.024l-.091.17c0-.024-.006-.073-.006-.1a.3.3 0 0 1-.079.012c-.006-.37 0-.739 0-1.115-.121 0-.248.006-.364.012l.006-.055-.073.012zm-62.998 2.151a1.1 1.1 0 0 1 .685.024 1.083 1.083 0 0 1 .473.515 1.409 1.409 0 0 1 .018.551 2.2 2.2 0 0 0-.079.212h-.012a1.433 1.433 0 0 1-.351.364c-.012 0-.042.006-.055.006a.991.991 0 0 1-.745 0h-.055a1.84 1.84 0 0 1-.37-.382 2.257 2.257 0 0 0-.079-.194 1.238 1.238 0 0 1 .03-.557c.03-.067.061-.133.091-.194a2.4 2.4 0 0 1 .248-.248c.067-.03.134-.06.201-.097zm.23.1a6.862 6.862 0 0 0-.321.115.836.836 0 0 0-.351.77l.091.224c.042.055.079.115.121.17a.6.6 0 0 1 .061.067.614.614 0 0 0 .315.121v.036c.091 0 .182-.006.267-.006l.327-.127v-.024a.77.77 0 0 0 .224-.9.8.8 0 0 0-.734-.449z" fill="#fff"/><path d="M21.681 16.682q.291-.009.582 0c.067.042.133.085.206.127-.018.127.055.327-.109.382.182.073.067.327.121.479-.048-.006-.145-.012-.194-.018 0-.121-.006-.242-.012-.364-.139-.006-.279-.006-.418-.012 0 .145 0 .3-.012.448-.055-.024-.127-.036-.164-.091-.006-.315 0-.636 0-.951zm.176.164v.267a10 10 0 0 0 .424-.012v-.242a8.576 8.576 0 0 0-.424-.014z" fill="#fff"/></svg>