<svg xmlns="http://www.w3.org/2000/svg" viewBox="0 0 87.1 18.2"><g fill="#fff"><path d="M3.5 15.3c-1.8-.5-2.1-1.6-1.3-2.2.8-.6 2.1-1 2.1-1l5.3-1.9v2.2l-3.8 1.4c-.7.2-.8.6-.2.7s1.6.1 2.2-.1l1.8-.7v1.9c-.1 0-.2 0-.4.1-1.9.4-3.8.2-5.7-.4zm11.3.2l6-2.1c.7-.2.8-.6.2-.8s-1.6-.1-2.2.1l-4 1.4v-2.2l.2-.1c.9-.3 1.8-.5 2.8-.6 1.6-.2 3.6 0 5.2.6 1.8.6 2 1.4 1.5 1.9-.4.6-1.5 1-1.5 1l-8.2 2.9v-2.1zm.7-13.9c3.2 1.1 4.2 2.4 4.2 5.5 0 3-1.8 4.1-4.2 3V4.5c0-.7-.1-1.3-.7-1.4-.5-.2-.8.3-.8.9v13.9l-3.7-1.2V.2c1.7.3 4 1 5.2 1.4zm8 15.2v.1h-.4v-.3h.4v.2zm.2.7v-.3l-.1-.1s.1 0 .1-.1v-.2c0-.1-.1-.2-.2-.3h-.7v1.1h.2v-.4h.4l.1.1v.3l.2-.1zm-1.2-.5c0-.2.1-.4.2-.6.3-.3.8-.3 1.1 0 .3.3.3.8 0 1.1-.1.1-.3.2-.5.2s-.4-.1-.5-.2c-.2 0-.3-.2-.3-.5zm.8 1c.2 0 .5-.1.7-.3.4-.4.4-1 0-1.3-.2-.2-.4-.3-.7-.3-.5 0-.9.4-.9 1 0 .2.1.5.3.6.1.2.3.3.6.3z" fill-rule="evenodd" clip-rule="evenodd"/><path d="M82.1 14.4h-.2v-1.1h-.4v-.2h.9v.2H82l.1 1.1zm1.1-.3l.3-1h.2v1.2h-.2v-1l-.4 1H83l-.4-1v1h-.2v-1.2h.2l.6 1zM80 3.7H64.7v4.1s0 1.6 1.9 1.6H76c.4 0 .7.1 1.1.2.5.2 1.1.7 1.1 1.7 0 .9-.4 1.3-.8 1.6-.3.2-.7.3-1.1.3H64.7v1.2h12.7s2.9-.1 2.9-3.1c0-1.5-.9-2.3-1.7-2.6-.5-.2-1.1-.4-1.6-.4h-9.2c-.2 0-.3 0-.4-.1-.2-.1-.4-.3-.4-.7V4.9h13V3.7zm-34.4 9.5v1.2H52c.8 0 1.5-.3 2.1-.8.6-.5 1-1.3.9-2.1V6.6c0-.5.2-1.1.7-1.4.3-.2.7-.4 1-.4h5.6V3.7h-6.7s-2.9 0-2.9 3.1v4.6c0 .4-.1.7-.3 1.1-.3.5-.8.8-1.4.8l-5.4-.1zM30.7 3.7v1.1h11.5c.3 0 .6.1.9.2.5.2 1 .7 1 1.5 0 .9-.5 1.3-1 1.5-.3.1-.6.2-.9.2h-8.5c-.5 0-1 .1-1.5.3-.7.4-1.5 1.2-1.5 2.6v3.1h2.2v-3.1c0-.2 0-.4.1-.6.2-.5.6-1.2 1.7-1.2h8.6c.3 0 .6 0 .9-.1.8-.2 2.1-.9 2.1-2.7 0-2.9-2.8-2.9-2.8-2.9H30.7z"/></g></svg>