<svg xmlns="http://www.w3.org/2000/svg" width="70.609" height="21.895"><path d="M10.811 0A10.89 10.89 0 0 0 0 10.071L5.814 12.5a3.043 3.043 0 0 1 1.728-.539h.171L10.3 8.18v-.056a4.09 4.09 0 1 1 4.09 4.128h-.094l-3.686 2.657v.145a3.069 3.069 0 0 1-6.083.607L.372 13.929a10.838 10.838 0 0 0 21.288-2.982A10.9 10.9 0 0 0 10.811 0" fill="#fff"/><path d="M6.798 16.611l-1.335-.556a2.294 2.294 0 0 0 4.2-.116 2.332 2.332 0 0 0 0-1.78 2.291 2.291 0 0 0-2.943-1.288l1.378.573a1.719 1.719 0 0 1 .916 2.237 1.693 1.693 0 0 1-2.22.928m5.552-8.489a2.049 2.049 0 1 1 2.049 2.066 2.056 2.056 0 0 1-2.049-2.066m4.77 0a2.725 2.725 0 1 0-2.725 2.751 2.741 2.741 0 0 0 2.725-2.751m15.936-.527l-.706 1.249a3.488 3.488 0 0 0-1.921-.612c-.736 0-1.189.308-1.189.856 0 .667.808.821 2.006 1.258 1.288.462 2.032 1 2.032 2.195 0 1.63-1.271 2.545-3.1 2.545a5.553 5.553 0 0 1-2.789-.74l.513-1.386a4.81 4.81 0 0 0 2.186.569c.962 0 1.42-.359 1.42-.89 0-.607-.7-.791-1.827-1.168-1.283-.432-2.177-1-2.177-2.319 0-1.489 1.181-2.34 2.879-2.34a4.468 4.468 0 0 1 2.669.783m5.514.787v6.563h-1.66V8.381h-2.408V6.943h6.473V8.38zm5.904-.004v1.805h3.179v1.433h-3.179v1.878h3.688v1.45h-5.348v-8h5.348v1.433zm8.925.475l-1.082 3.2h2.186zM51.86 13.39l-.526 1.553h-1.743l2.973-8h1.673l3.055 8h-1.8l-.535-1.553zm13.953-3.354l-2.169 4.676h-.937l-2.135-4.633v4.864h-1.591v-8h1.587l2.665 5.775L65.8 6.943h1.6v8h-1.587zm3.513-2.138h.192a.184.184 0 0 0 .2-.18c0-.1-.051-.167-.2-.167h-.192zm.205-.513c.282 0 .381.15.381.317a.331.331 0 0 1-.2.3l.257.483h-.21l-.214-.428h-.222v.428h-.175v-1.1h.381zm-.933.569a.914.914 0 1 0 .916-.933.893.893 0 0 0-.916.933m2.011 0a1.1 1.1 0 1 1-1.1-1.112 1.073 1.073 0 0 1 1.1 1.112" fill="#fff"/></svg>