<svg id="Layer_1" xmlns="http://www.w3.org/2000/svg" viewBox="0 0 75.2 15.4"><style>.st0{fill:#fff}</style><path class="st0" d="M49.3 12.4l-2.9-4-2.9 4h-1.2l3.5-4.8-3.2-4.4h1.2l2.6 3.6L49 3.2h1.2L47 7.6l3.5 4.8h-1.2zm-22.9 0l-3.5-4.8 3.2-4.4h-1.2l-2.6 3.6-2.6-3.6h-1.2l3.2 4.4-3.5 4.8h1.2l2.9-4 2.9 4h1.2z"/><path class="st0" d="M33.1 7.9c-.2-.2-.4-.3-.6-.4.7-.4 1.1-1.1 1.1-1.8 0-.6-.2-2.5-3-2.5h-3.7v4h-1.2c-.2.2-.5.7-.7.9h1.9v4.3h3.7c2 0 3.3-1 3.3-2.7 0-.7-.3-1.3-.8-1.8m-5.2-3.7h2.7c.7 0 2 .2 2 1.5 0 1-.7 1.5-2 1.5h-2.7v-3zm2.7 7.2h-2.7V8.1h2.7c1 0 2.3.3 2.3 1.6 0 1.5-1.4 1.7-2.3 1.7M38.8 3c-2.6 0-4.4 2-4.4 4.8s1.8 4.8 4.4 4.8 4.4-2 4.4-4.8S41.4 3 38.8 3m0 8.6c-2 0-3.4-1.6-3.4-3.8S36.8 4 38.8 4s3.3 1.6 3.3 3.8-1.3 3.8-3.3 3.8M2.3 2.2C-.5 4.9-.8 9.3 1.6 12.3c-.6-1.8 2.4-6.2 4-8C3 1.6 2.3 2.2 2.3 2.2m10.8 0c2.8 2.7 3.1 7.1.7 10.1.6-1.8-2.4-6.2-4-8 2.6-2.7 3.3-2.1 3.3-2.1M7.7 0c1.4 0 2.8.4 4 1.1-1.5-.3-3.7 1-4 1.1-.6-.3-2.7-1.4-4-1C4.9.4 6.3 0 7.7 0m0 6.2C10 8 14 12.3 12.8 13.5c-3 2.5-7.3 2.5-10.2 0-1.2-1.3 2.8-5.6 5.1-7.3m49 1.8c-.1 0-.2 0-.2.1-.1.1-.1.2-.1.3V9h.7v-.7c0-.1 0-.2-.1-.3-.1 0-.2-.1-.3 0z"/><path class="st0" d="M57.5 8.4c0-.1 0-.2.1-.3 0-.1.1-.1.2-.1h.2c.1 0 .2 0 .3-.1v-.5c-.1.1-.2.1-.2.1h-.4c-.1 0-.2 0-.3.1l-.2.2c-.1-.2-.3-.4-.6-.4-.2 0-.4.1-.5.2 0 0-.1 0-.1.1v1.7h2.4v-.5h-.9v-.5zm-.4.5h-.7v-.5c0-.1 0-.2.1-.3 0-.1.1-.1.2-.1s.2 0 .3.1c.1.1.1.2.1.3v.5zM73 .5h-3.1L68 3.1l1.5 2.2zm-17 9.9v1.7h2.3v-1.7H58v1.2h-.6v-1.1H57v1.1h-.6v-1.2zm0-7.2V5h2.3V3.2H58v1.3h-.6V3.3H57v1.2h-.6V3.2zm1.6 9.8c-.1 0-.3.1-.4.2-.1.2-.2.4-.2.6v.2c0 .1-.1.2-.1.4 0 .1-.1.1-.2.1s-.2 0-.2-.1c-.1-.1-.1-.2-.1-.3 0-.1 0-.3.1-.4.1-.1.2-.1.3-.1v-.4c-.2 0-.4.1-.6.2-.1.2-.2.5-.2.7 0 .2 0 .5.2.6.1.1.3.2.5.2s.4-.1.5-.2c.1-.2.2-.4.2-.6v-.2c0-.1.1-.2.1-.4 0-.1.1-.1.2-.1s.2 0 .2.1c.1.1.1.2.1.4 0 .1 0 .3-.1.4-.1.1-.2.1-.4.1v.4c.2 0 .5-.1.6-.2.3-.4.3-1 0-1.4-.1-.2-.2-.2-.5-.2zM57.7.4c-.2 0-.3 0-.5.2-.1.1-.2.3-.2.5v.2c0 .1-.1.2-.1.4 0 .1-.1.1-.2.1s-.2 0-.2-.1-.1-.2-.1-.3c0-.1 0-.2.1-.4s.2-.1.3-.2V.4c-.2 0-.4.1-.6.2-.2.2-.2.5-.2.7s.1.5.2.7c.1.1.3.2.5.2s.4 0 .5-.2c.1-.2.2-.4.2-.6v-.2c0-.1.1-.3.1-.4 0-.1.1-.1.2-.1s.2 0 .2.1c.1.3.1.4.1.5 0 .1 0 .3-.1.4-.1.1-.2.1-.4.1v.4c.2 0 .5-.1.6-.2.3-.4.3-1 0-1.4 0-.1-.2-.2-.4-.2zM56 6h2.4v.5H56zM59.8.5l10.6 14.4h3.1L62.9.5zm-.5 14.4h3.2l2.3-3.2-1.5-2.2z"/></svg>