<svg xmlns="http://www.w3.org/2000/svg" width="77.112" height="15.361"><path d="M49.335 12.41l-2.943-3.995-2.94 3.995H42.24l3.538-4.827-3.233-4.386h1.212l2.634 3.578 2.634-3.578h1.209l-3.229 4.386 3.538 4.827zm-22.937 0l-3.544-4.824 3.234-4.39h-1.212l-2.634 3.578-2.631-3.578h-1.209l3.23 4.386-3.541 4.824h1.212l2.94-3.995 2.943 3.995z" fill="#fff"/><path d="M33.131 7.93a2.685 2.685 0 0 0-.6-.386A2.092 2.092 0 0 0 33.634 5.7c0-.589-.216-2.508-3-2.508H26.9v3.973h-1.246c-.16.21-.527.716-.669.925H26.9v4.315h3.742c2.027 0 3.285-1.03 3.285-2.69a2.273 2.273 0 0 0-.8-1.786m-5.2-3.776h2.708c.731 0 1.959.182 1.959 1.465 0 .969-.716 1.545-1.959 1.545h-2.701V4.155zm2.708 7.292h-2.701V8.094h2.708c1.027 0 2.255.284 2.255 1.6 0 1.521-1.413 1.749-2.255 1.749m8.153-8.464c-2.588 0-4.4 1.98-4.4 4.815s1.808 4.815 4.4 4.815 4.389-1.977 4.389-4.815-1.8-4.815-4.389-4.815m0 8.655c-1.971 0-3.353-1.579-3.353-3.84s1.382-3.84 3.353-3.84 3.344 1.579 3.344 3.84-1.376 3.84-3.344 3.84m-36.5-9.43l-.006.006a7.677 7.677 0 0 0-.719 10.122c.009.012.028.022.04.012a.033.033 0 0 0 .009-.04c-.586-1.811 2.406-6.2 3.954-8.038a.026.026 0 0 0 0-.046c-2.6-2.588-3.3-2-3.285-2m10.784-.006l.006.006a7.681 7.681 0 0 1 .713 10.117c-.009.012-.028.022-.04.012a.037.037 0 0 1-.009-.04c.586-1.811-2.406-6.2-3.951-8.042a.031.031 0 0 1-.012-.022.027.027 0 0 1 .015-.025c2.6-2.588 3.291-1.993 3.282-2M7.68 0a7.593 7.593 0 0 1 4 1.123.027.027 0 0 1 .012.037.032.032 0 0 1-.037.012C10.169.851 7.908 2.135 7.7 2.264c-.006 0-.009.006-.015.006a.024.024 0 0 1-.015-.006C7.1 1.937 5.009.842 3.692 1.181a.032.032 0 0 1-.037-.012.029.029 0 0 1 .012-.037A7.567 7.567 0 0 1 7.68 0m0 6.16a.038.038 0 0 1 .025.012c2.3 1.749 6.231 6.067 5.031 7.289a7.676 7.676 0 0 1-10.111 0c-1.2-1.221 2.733-5.543 5.031-7.289a.032.032 0 0 1 .024-.012M68.425 3.2v7.56l-5.571-7.571h-.913v9.207h1.024V5l5.457 7.4h1.027V3.2zm-11.808-.22c-2.588 0-4.4 1.98-4.4 4.815s1.811 4.818 4.4 4.818 4.389-1.98 4.389-4.818S59.2 2.98 56.617 2.98m0 8.658c-1.971 0-3.353-1.579-3.353-3.843s1.382-3.84 3.353-3.84 3.344 1.579 3.344 3.84-1.376 3.843-3.344 3.843m15.016-.138V8.094H76.7v-.9h-5.067V4.09h5.413v-.9H70.6v9.21h6.508v-.9z" fill="#fff"/></svg>